<?xml version="1.0" encoding="utf-8"?>
<!-- Generator: Adobe Illustrator 24.3.0, SVG Export Plug-In . SVG Version: 6.00 Build 0)  -->
<svg version="1.1" id="Layer_1" xmlns="http://www.w3.org/2000/svg" xmlns:xlink="http://www.w3.org/1999/xlink" x="0px" y="0px"
	 width="24px" height="24px" viewBox="0 0 24 24" style="enable-background:new 0 0 24 24;" xml:space="preserve">
<g>
	<rect class="st0" width="24" height="24"/>
</g>
<g>
	<g>
		<g>
			<path class="st1" d="M18.8,12.9l-4.5-2.3c-0.2-0.1-0.4-0.1-0.5-0.1H13v-6C13,3.7,12.3,3,11.5,3S10,3.7,10,4.5v10.7
				c-3.6-0.8-3.5-0.8-3.7-0.8c-0.3,0-0.6,0.1-0.8,0.3l-0.8,0.8l4.9,4.9c0.3,0.3,0.6,0.4,1.1,0.4h6.8c0.8,0,1.3-0.5,1.4-1.3l0.8-5.3
				c0-0.1,0-0.1,0-0.2C19.8,13.6,19.4,13.1,18.8,12.9z"/>
		</g>
	</g>
</g>
</svg>
